<svg xmlns="http://www.w3.org/2000/svg" viewBox="0 0 80 80" width="80" height="80">
  <defs>
    <linearGradient id="g" x1="0" y1="0" x2="0" y2="1">
      <stop offset="0%" stop-color="#FDE68A"/>
      <stop offset="100%" stop-color="#B45309"/>
    </linearGradient>
  </defs>
  <!-- Waistband -->
  <rect x="18" y="4" width="44" height="13" rx="5" fill="#F59E0B"/>
  <!-- Waistband highlight -->
  <rect x="20" y="5" width="40" height="4" rx="3" fill="rgba(255,255,255,0.3)"/>
  <!-- Skirt flare -->
  <path d="M18,16 C12,26 4,52 2,76 L78,76 C76,52 68,26 62,16 Z" fill="url(#g)"/>
  <!-- Ruffle 1 -->
  <path d="M4,50 Q22,40 40,50 Q58,40 76,50 Q58,60 40,56 Q22,60 4,50 Z" fill="#FCD34D"/>
  <!-- Ruffle 2 -->
  <path d="M2,64 Q22,54 40,64 Q58,54 78,64 Q58,74 40,72 Q22,74 2,64 Z" fill="#FDE68A"/>
  <!-- Bow left wing -->
  <ellipse cx="30" cy="10" rx="10" ry="6" fill="#D97706" transform="rotate(-22,30,10)"/>
  <!-- Bow right wing -->
  <ellipse cx="50" cy="10" rx="10" ry="6" fill="#D97706" transform="rotate(22,50,10)"/>
  <!-- Bow knot -->
  <circle cx="40" cy="10" r="6" fill="#B45309"/>
  <circle cx="40" cy="9"  r="2.5" fill="rgba(255,255,255,0.3)"/>
</svg>
